<svg xmlns="http://www.w3.org/2000/svg" viewBox="0 0 520 512"><defs><style>.cls-1{fill:#01579b;}.cls-2{fill:#fefefe;fill-rule:evenodd;}</style></defs><g id="github_blue"><circle class="cls-1" cx="261.11" cy="256" r="227.8" transform="translate(-104.54 259.61) rotate(-45)"/><path class="cls-2" d="M275.83,234.53c1.12-1.21,1.56-1.58,1.87-2,15.31-22.34,37.18-28.91,62.69-25,29.49,4.54,48.36,25.18,53.17,56.76a148.27,148.27,0,0,1,1.71,22.57c0,31.45-.07,62.89.06,94.33,0,3.54-.85,4.58-4.48,4.53q-24.71-.29-49.42,0c-3.6,0-4.53-1-4.51-4.53.14-29.32.09-58.65.06-88a70.68,70.68,0,0,0-2.34-19.74c-6-20.7-29.56-28-46.33-14.2-9.06,7.43-12.6,17.26-12.53,28.83.14,27.66,0,55.32,0,83,0,3.62-.2,7.27.06,10.87.23,3.14-1.05,3.74-3.89,3.72q-25.17-.17-50.33,0c-3,0-4.14-.59-4.1-3.94q.36-37.39.35-74.82,0-46-.27-92.05c0-3.36.68-4.35,4.15-4.31,16.78.19,33.56.16,50.33,0,3,0,3.87.88,3.77,3.82C275.68,220.72,275.83,227.05,275.83,234.53Z"/><path class="cls-2" d="M185.65,298.15c0,27.65-.06,55.3.07,83,0,3.43-.68,4.65-4.42,4.6-16.62-.22-33.24-.17-49.86,0-3.09,0-4.13-.74-4.13-4q.14-83.62,0-167.27c0-2.9.7-3.87,3.75-3.84q25.39.21,50.77,0c3.38,0,3.9,1.19,3.89,4.17C185.61,242.55,185.65,270.35,185.65,298.15Z"/><path class="cls-2" d="M157,126.3c22.29,0,36.78,17.68,31.5,38.4-4,15.64-20.17,24.64-38.84,21.61C129.79,183.09,118.73,163.74,126,145,130.6,133.35,142.27,126.28,157,126.3Z"/></g></svg>