<svg id="Layer_1" data-name="Layer 1" xmlns="http://www.w3.org/2000/svg" viewBox="0 0 50 43.16"><defs><style>.cls-1{fill:#03579b;}</style></defs><rect class="cls-1" x="44.72" y="8.95" width="5.28" height="25.68" transform="translate(94.72 43.59) rotate(180)"/><rect class="cls-1" x="34.42" y="8.95" width="5.28" height="25.68" transform="translate(74.12 43.59) rotate(180)"/><rect class="cls-1" x="32.84" y="17.48" width="5.28" height="29.04" transform="translate(67.48 -3.48) rotate(90)"/><rect class="cls-1" x="36.02" y="4.7" width="5.28" height="13.79" transform="translate(50.25 -27.07) rotate(90)"/><rect class="cls-1" x="22.36" y="-22.36" width="5.28" height="50" transform="translate(22.36 27.64) rotate(-90)"/><rect class="cls-1" x="22.36" y="15.52" width="5.28" height="50" transform="translate(-15.52 65.52) rotate(-90)"/><rect class="cls-1" x="22.38" y="14.58" width="5.28" height="13.49" transform="translate(3.7 46.34) rotate(-90)"/><rect class="cls-1" y="8.95" width="5.28" height="25.68"/><rect class="cls-1" x="10.3" y="8.95" width="5.28" height="25.68"/><rect class="cls-1" x="11.83" y="-2.88" width="5.28" height="28.95" transform="translate(2.88 26.06) rotate(-90)"/><rect class="cls-1" x="8.72" y="25.08" width="5.28" height="13.83" transform="translate(-20.63 43.36) rotate(-90)"/></svg>