<svg id="Layer_1" data-name="Layer 1" xmlns="http://www.w3.org/2000/svg" viewBox="0 0 48 48"><defs><style>.cls-1{fill:#fff;}</style></defs><rect class="cls-1" x="1.49" y="12.26" width="4.75" height="23.1"/><rect class="cls-1" x="10.77" y="12.26" width="4.75" height="23.1"/><rect class="cls-1" x="12.19" y="1.56" width="4.75" height="26.15" transform="translate(-0.07 29.2) rotate(-90)"/><rect class="cls-1" x="9.33" y="26.77" width="4.75" height="12.41" transform="translate(-21.28 44.69) rotate(-90)"/><rect class="cls-1" x="21.63" y="18.52" width="4.75" height="45.01" transform="translate(65.03 17.03) rotate(90)"/><rect class="cls-1" x="21.63" y="-15.54" width="4.75" height="45.01" transform="translate(30.97 -17.03) rotate(90)"/><rect class="cls-1" x="21.61" y="18.16" width="4.75" height="12.14" transform="translate(48.21 0.25) rotate(90)"/><rect class="cls-1" x="41.76" y="12.26" width="4.75" height="23.1" transform="translate(88.26 47.61) rotate(180)"/><rect class="cls-1" x="32.48" y="12.26" width="4.75" height="23.1" transform="translate(69.72 47.61) rotate(180)"/><rect class="cls-1" x="31.1" y="19.95" width="4.75" height="26.06" transform="translate(66.46 -0.5) rotate(90)"/><rect class="cls-1" x="33.91" y="8.41" width="4.75" height="12.45" transform="translate(50.91 -21.65) rotate(90)"/></svg>