<svg id="Layer_1" data-name="Layer 1" xmlns="http://www.w3.org/2000/svg" viewBox="0 0 48 48"><defs><style>.cls-1{fill:#03579b;}</style></defs><rect class="cls-1" y="12.22" width="5.07" height="24.68"/><rect class="cls-1" x="9.9" y="12.22" width="5.07" height="24.68"/><rect class="cls-1" x="11.42" y="0.8" width="5.07" height="27.91" transform="translate(-0.8 28.71) rotate(-90)"/><rect class="cls-1" x="8.36" y="27.74" width="5.07" height="13.25" transform="translate(-23.46 45.26) rotate(-90)"/><rect class="cls-1" x="21.49" y="18.94" width="5.07" height="48.05" transform="translate(66.99 18.94) rotate(90)"/><rect class="cls-1" x="21.49" y="-17.46" width="5.07" height="48.05" transform="translate(30.59 -17.46) rotate(90)"/><rect class="cls-1" x="21.47" y="18.53" width="5.07" height="12.96" transform="translate(49.01 1) rotate(90)"/><rect class="cls-1" x="42.98" y="12.22" width="5.07" height="24.68" transform="translate(91.03 49.11) rotate(180)"/><rect class="cls-1" x="33.08" y="12.22" width="5.07" height="24.68" transform="translate(71.23 49.11) rotate(180)"/><rect class="cls-1" x="31.6" y="20.45" width="5.07" height="27.82" transform="translate(68.5 0.22) rotate(90)"/><rect class="cls-1" x="34.59" y="8.11" width="5.07" height="13.29" transform="translate(51.88 -22.38) rotate(90)"/></svg>