<svg id="Capa_1" enable-background="new 0 0 453.543 453.543" viewBox="0 0 453.543 453.543" xmlns="http://www.w3.org/2000/svg"><path d="m226.798 404.945c10.505 0 143.088-182.834 143.088-261.859-.001-79.024-64.063-143.086-143.088-143.086s-143.087 64.062-143.087 143.087c0 79.024 131.933 261.858 143.087 261.858zm-46.835-265.614c0-25.866 20.968-46.835 46.835-46.835s46.835 20.968 46.835 46.835-20.968 46.835-46.835 46.835-46.835-20.968-46.835-46.835z"/><path d="m74.291 417.109c0 20.122 68.269 36.434 152.482 36.434 84.212 0 152.48-16.312 152.48-36.434 0-15.978-43.06-29.543-102.949-34.458-2.97 4.081-5.917 8.084-8.798 11.891-27.234 35.982-33.212 37.809-40.709 37.809-7.666 0-14.251-2.544-40.988-37.795-2.883-3.8-5.833-7.802-8.807-11.885-59.765 4.931-102.711 18.482-102.711 34.438z"/></svg>